<svg width="16" height="16" fill="none" xmlns="http://www.w3.org/2000/svg"><path d="M13.587 11.443a.676.676 0 00.679-.69.675.675 0 00-.679-.682H5.799c-.287 0-.473-.209-.514-.522l-.11-.71h8.487c1.083 0 1.66-.661 1.817-1.761l.494-3.363c.013-.097.027-.216.027-.3 0-.452-.295-.765-.836-.765H4.305l-.096-.675C4.12 1.327 3.846 1 3.037 1H.734a.75.75 0 000 1.497h2.035l1.036 7.198c.157 1.086.733 1.748 1.816 1.748h7.966zM6.19 15c.693 0 1.248-.564 1.248-1.267s-.555-1.267-1.248-1.267c-.692 0-1.247.564-1.247 1.267S5.498 15 6.19 15zm6.286 0c.693 0 1.248-.564 1.248-1.267s-.555-1.267-1.248-1.267c-.692 0-1.254.564-1.254 1.267S11.784 15 12.476 15z" fill="#fff"/></svg>