<svg width="24" height="24" fill="none" xmlns="http://www.w3.org/2000/svg"><path d="M7.471 22.165c9.136 0 14.09-7.549 14.09-14.09 0-.156 0-.427-.038-.659A10.35 10.35 0 0024 4.861a9.32 9.32 0 01-2.826.774 4.792 4.792 0 002.168-2.748c-.968.542-1.974.968-3.174 1.2C19.238 3.12 18 2.5 16.568 2.5a5.006 5.006 0 00-4.994 4.994c0 .387.039.774.116 1.16C7.703 8.385 4.065 6.41 1.587 3.43 1.161 4.203.93 5.016.93 5.906c0 1.742.89 3.213 2.245 4.104A5.384 5.384 0 01.93 9.39v.039c0 2.361 1.703 4.413 3.948 4.877-.425.117-.89.155-1.238.155a3.58 3.58 0 01-.93-.116c.659 1.974 2.478 3.407 4.646 3.445-1.703 1.317-3.832 2.13-6.116 2.13-.465.077-.852 0-1.239-.04 2.09 1.472 4.684 2.285 7.471 2.285z" fill="#fff"/></svg>