<svg width="24" height="24" fill="none" xmlns="http://www.w3.org/2000/svg"><path d="M13.894.001c1.648.003 2.118.017 3.158.076 1.318.04 2.17.233 2.945.542.776.31 1.434.697 2.093 1.355s1.085 1.316 1.357 2.13c.27.812.503 1.702.542 2.941.039 1.316-.039 1.742-.039 5.032v2.279a74.804 74.804 0 01-.038 2.638c-.04 1.316-.272 2.167-.543 2.942a5.524 5.524 0 01-1.356 2.128c-.66.659-1.318 1.084-2.132 1.355-.814.271-1.628.504-2.945.542-.352.01-.634.018-.922.024l-.218.003c-.369.006-.775.01-1.364.01l-.376.001H10.32c-1.817-.002-2.251-.014-3.305-.076-1.318-.04-2.17-.271-2.946-.542a5.531 5.531 0 01-2.131-1.355c-.66-.658-1.085-1.316-1.357-2.13-.271-.812-.504-1.625-.542-2.941a106.46 106.46 0 01-.02-.705l-.006-.324a88.99 88.99 0 01-.011-1.3L0 14.273V11.38c.004-2.721.04-3.106.076-4.335C.117 5.73.31 4.877.62 4.103c.271-.813.698-1.47 1.356-2.129.66-.658 1.318-1.122 2.132-1.393C4.922.31 5.736.077 7.053.039 7.976.012 8.423.003 9.74 0h4.155zm.198 2.206h-4.079c-.853.001-1.36.005-1.82.013l-.209.004c-.243.005-.486.012-.776.021-1.201.039-1.821.271-2.247.426-.543.232-.93.464-1.357.89-.387.387-.659.813-.891 1.355-.155.465-.388 1.084-.426 2.245-.01.29-.016.532-.022.775l-.004.21c-.008.423-.01.887-.012 1.626v.61l-.001.23V16.8c.039 1.2.271 1.82.426 2.245.271.542.504.93.93 1.355.388.426.814.697 1.357.929.465.155 1.085.387 2.247.426a72.98 72.98 0 002.574.037l.62.001h6.456c1.202-.038 1.822-.27 2.248-.425.543-.271.93-.503 1.356-.93.427-.386.698-.812.93-1.354.156-.465.388-1.084.427-2.245l.023-.67.007-.21c.026-.766.047-1.603.047-3.959V9.772a72.309 72.309 0 00-.038-2.61c-.04-1.2-.272-1.82-.427-2.246-.271-.542-.504-.929-.93-1.355-.387-.387-.814-.658-1.356-.89-.465-.155-1.085-.387-2.248-.426a72.79 72.79 0 00-.776-.021l-.21-.004a99.213 99.213 0 00-1.819-.013zm-2.078 3.638c3.45 0 6.2 2.71 6.2 6.155 0 3.445-2.828 6.155-6.2 6.155-3.372 0-6.162-2.71-6.162-6.155a6.15 6.15 0 016.162-6.155zm0 2.13c-2.21 0-4.03 1.819-4.03 4.025a4.025 4.025 0 004.03 4.026A4 4 0 0016.044 12a4 4 0 00-4.03-4.026zm6.472-3.833a1.433 1.433 0 11.002 2.866 1.433 1.433 0 01-.002-2.866z" fill="#fff"/></svg>