<svg aria-hidden="true" style="position:absolute;width:0;height:0" xmlns="http://www.w3.org/2000/svg" overflow="hidden"><defs><symbol id="icon-arrow-right" viewBox="0 0 32 32"><path d="M29.888 14.037l-5.563-5.49c-.764-.712-1.963-.712-2.727-.102a1.788 1.788 0 00-.109 2.542l3.163 3.152H1.963c-1.091 0-1.963.813-1.963 1.83s.873 1.83 1.963 1.83h22.798l-3.163 3.152c-.764.712-.655 1.83.109 2.542.327.305.873.508 1.309.508.545 0 .982-.203 1.418-.508l5.563-5.49c.982-1.22.982-2.847-.109-3.965z"/></symbol><symbol id="icon-cart-header" viewBox="0 0 32 32"><path d="M4.905 3.765H0V0h8.271l.845 7.529h21.002v11.178L7.096 23.283 4.906 3.764zM29.176 32a2.824 2.824 0 110-5.648 2.824 2.824 0 010 5.648zm-18.823 0a2.824 2.824 0 110-5.648 2.824 2.824 0 010 5.648z"/></symbol><symbol id="icon-check-arrow" viewBox="0 0 32 32"><path d="M19.689 30.146L31.58 4.241c1.409-3.055-.94-5.184-3.92-3.819L1.724 12.4c-2.689 1.235-2.122 5.054.94 5.071l11.632.033c.194 0 .227.016.227.228l.032 11.62c0 3.023 3.807 3.689 5.135.796z"/></symbol><symbol id="icon-check-camera" viewBox="0 0 32 32"><path d="M27.644 28.666c2.848 0 4.356-1.508 4.356-4.354V10.651c0-2.847-1.508-4.367-4.356-4.367h-3.286c-.992 0-1.34-.169-1.985-.832l-1.018-1.066c-.683-.715-1.379-1.053-2.681-1.053h-5.4c-1.302 0-1.998.338-2.681 1.053L9.575 5.452c-.644.663-.992.832-1.998.832H4.368c-2.848 0-4.369 1.521-4.369 4.367v13.661c0 2.847 1.521 4.354 4.369 4.354h23.275zm-11.638-4.224c-3.828 0-6.908-3.094-6.908-6.98 0-3.873 3.08-6.98 6.908-6.98s6.895 3.107 6.895 6.98c0 3.886-3.067 6.98-6.895 6.98zm9.473-9.983c-.967 0-1.766-.78-1.766-1.768 0-.949.812-1.768 1.766-1.768.941 0 1.753.819 1.753 1.768a1.78 1.78 0 01-1.753 1.768zm-9.473 7.396c2.41 0 4.343-1.95 4.343-4.393 0-2.431-1.933-4.393-4.343-4.393s-4.343 1.963-4.343 4.393c0 2.444 1.946 4.393 4.343 4.393z"/></symbol><symbol id="icon-check-cart" viewBox="0 0 32 32"><path d="M27.174 22.885c.713 0 1.357-.557 1.357-1.378a1.35 1.35 0 00-1.357-1.365H11.599c-.576 0-.946-.418-1.028-1.044l-.219-1.42h16.973c2.166 0 3.318-1.323 3.633-3.523l.987-6.725c.027-.195.055-.432.055-.599 0-.905-.59-1.532-1.673-1.532H8.61l-.192-1.351c-.178-1.295-.727-1.949-2.344-1.949H1.467C.672 1.999 0 2.681 0 3.503c0 .808.672 1.49 1.467 1.49h4.072l2.07 14.397c.315 2.172 1.467 3.495 3.633 3.495h15.931zM12.38 30c1.385 0 2.495-1.128 2.495-2.534s-1.111-2.534-2.495-2.534-2.495 1.128-2.495 2.534S10.996 30 12.38 30zm12.573 0c1.385 0 2.495-1.128 2.495-2.534s-1.111-2.534-2.495-2.534c-1.385 0-2.509 1.128-2.509 2.534S23.568 30 24.953 30z"/></symbol><symbol id="icon-check-person" viewBox="0 0 32 32"><path d="M16.009 15.55c3.825 0 7.009-3.456 7.009-7.881 0-4.32-3.202-7.669-7.009-7.669S8.966 3.403 8.983 7.705c0 4.39 3.202 7.846 7.026 7.846zM27.448 32c2.007 0 3.219-.987 3.219-2.609 0-4.531-5.694-10.737-14.675-10.737-8.964 0-14.658 6.206-14.658 10.737C1.334 31.013 2.545 32 4.553 32h22.896z"/></symbol><symbol id="icon-social-1" viewBox="0 0 32 32"><path d="M29.763 0H2.333A2.318 2.318 0 000 2.323v27.355c0 1.239 1.037 2.323 2.333 2.323h27.326a2.318 2.318 0 002.333-2.323V2.271C32.096 1.032 31.059 0 29.762 0zM9.489 27.2H4.77V11.974h4.719V27.2zM7.104 9.858c-1.556 0-2.748-1.239-2.748-2.735S5.6 4.387 7.104 4.387c1.504 0 2.748 1.239 2.748 2.736S8.711 9.858 7.104 9.858zM27.378 27.2h-4.719v-7.381c0-1.755-.052-4.077-2.489-4.077-2.489 0-2.852 1.961-2.852 3.923V27.2h-4.719V11.974h4.615v2.116h.052c.674-1.239 2.178-2.477 4.511-2.477 4.822 0 5.704 3.097 5.704 7.329V27.2h-.104z"/></symbol><symbol id="icon-social-2" viewBox="0 0 32 32"><path d="M30.194 0H1.807A1.795 1.795 0 00.001 1.806v28.387c0 1.032.826 1.806 1.806 1.806h15.277V19.56h-4.129v-4.8h4.129v-3.561c0-4.129 2.477-6.4 6.194-6.4 1.239 0 2.477.052 3.716.206v4.284h-2.477c-1.961 0-2.374.929-2.374 2.323v3.045h4.697l-.671 4.852H22.04v12.284h8.155c1.032 0 1.806-.774 1.806-1.807V1.805c-.052-1.032-.877-1.806-1.806-1.806z"/></symbol><symbol id="icon-social-3" viewBox="0 0 32 32"><path d="M18.526.001c2.197.004 2.824.023 4.21.102 1.757.052 2.894.31 3.927.723s1.912.929 2.79 1.806c.878.877 1.447 1.755 1.809 2.839s.672 2.271.723 3.923c.052 1.755-.052 2.323-.052 6.71v2.502l-.001.536a97.44 97.44 0 01-.05 3.516c-.052 1.755-.362 2.89-.723 3.923s-.93 1.961-1.809 2.839c-.878.877-1.757 1.445-2.842 1.806s-2.17.671-3.927.723c-.469.014-.845.024-1.229.031l-.291.005c-.492.008-1.033.011-1.818.013l-.501.001h-4.981c-2.424-.003-3.003-.02-4.408-.102-1.757-.052-2.894-.361-3.927-.723s-1.964-.929-2.842-1.806-1.447-1.755-1.809-2.839c-.362-1.084-.672-2.168-.723-3.923-.01-.351-.019-.65-.025-.94l-.009-.432C.01 20.751.005 20.237.003 19.5l-.001-.471v-3.856c.006-3.628.054-4.142.103-5.78.052-1.755.31-2.89.723-3.923.362-1.084.93-1.961 1.809-2.839S4.394 1.134 5.479.773C6.564.412 7.649.102 9.406.05c1.23-.036 1.827-.047 3.581-.05h5.541zm.264 2.942h-5.439a150.67 150.67 0 00-2.426.017l-.28.006c-.324.007-.648.016-1.034.028-1.602.052-2.429.361-2.997.568-.723.31-1.24.619-1.809 1.187-.517.516-.878 1.084-1.188 1.806C3.41 7.174 3.1 8 3.049 9.549c-.012.385-.021.709-.028 1.033l-.006.279c-.01.565-.014 1.183-.016 2.169l-.001.813v8.558c.052 1.6.362 2.426.568 2.994.362.723.672 1.239 1.24 1.806.517.568 1.085.929 1.809 1.239.62.207 1.447.516 2.997.568a95.28 95.28 0 003.432.05l.826.001h8.608c1.602-.052 2.429-.361 2.997-.568.723-.361 1.24-.671 1.809-1.239.568-.516.93-1.084 1.24-1.806.207-.619.517-1.445.568-2.994.01-.33.021-.615.031-.894l.01-.278c.035-1.023.063-2.138.063-5.28v-2.445l-.001-.525a96.668 96.668 0 00-.05-3.481c-.052-1.6-.362-2.426-.568-2.994-.362-.723-.672-1.239-1.24-1.806-.517-.516-1.085-.877-1.809-1.187-.62-.206-1.447-.516-2.997-.568-.386-.012-.71-.021-1.034-.028l-.28-.006c-.612-.011-1.288-.015-2.426-.017zm-2.771 4.851c4.599 0 8.268 3.613 8.268 8.206s-3.772 8.206-8.268 8.206c-4.495 0-8.216-3.613-8.216-8.206a8.199 8.199 0 018.216-8.206zm0 2.838c-2.945 0-5.374 2.426-5.374 5.368s2.377 5.368 5.374 5.368 5.374-2.374 5.374-5.368-2.377-5.368-5.374-5.368zm8.629-5.109a1.91 1.91 0 11-1.912 1.91 1.91 1.91 0 011.912-1.91z"/></symbol><symbol id="icon-social-4" viewBox="0 0 32 32"><path d="M9.961 29.553c12.181 0 18.787-10.065 18.787-18.787 0-.206 0-.568-.052-.877a13.8 13.8 0 003.303-3.406c-1.239.568-2.477.877-3.768 1.032a6.386 6.386 0 002.89-3.664c-1.29.723-2.632 1.29-4.232 1.6-1.239-1.29-2.89-2.116-4.8-2.116-3.664 0-6.658 2.994-6.658 6.658 0 .516.052 1.032.155 1.548C10.27 11.18 5.418 8.547 2.115 4.573c-.568 1.032-.877 2.116-.877 3.303 0 2.323 1.187 4.284 2.994 5.471a7.181 7.181 0 01-2.994-.826v.052c0 3.148 2.271 5.884 5.265 6.503a6.556 6.556 0 01-1.652.206c-.413 0-.877-.052-1.239-.155.877 2.632 3.303 4.542 6.194 4.593-2.271 1.755-5.11 2.839-8.155 2.839-.619.103-1.135 0-1.652-.052 2.787 1.961 6.245 3.045 9.961 3.045z"/></symbol></defs></svg>