<svg xmlns="http://www.w3.org/2000/svg" width="32" height="32"><path d="M27.174 22.885c.713 0 1.357-.557 1.357-1.378a1.35 1.35 0 00-1.357-1.365H11.599c-.576 0-.946-.418-1.028-1.044l-.219-1.42h16.973c2.166 0 3.318-1.323 3.633-3.523l.987-6.725c.027-.195.055-.432.055-.599 0-.905-.59-1.532-1.673-1.532H8.61l-.192-1.351c-.178-1.295-.727-1.949-2.344-1.949H1.467C.672 1.999 0 2.681 0 3.503c0 .808.672 1.49 1.467 1.49h4.072l2.07 14.397c.315 2.172 1.467 3.495 3.633 3.495h15.931zM12.38 30c1.385 0 2.495-1.128 2.495-2.534s-1.111-2.534-2.495-2.534-2.495 1.128-2.495 2.534S10.996 30 12.38 30zm12.573 0c1.385 0 2.495-1.128 2.495-2.534s-1.111-2.534-2.495-2.534c-1.385 0-2.509 1.128-2.509 2.534S23.568 30 24.953 30z"/></svg>