<svg xmlns="http://www.w3.org/2000/svg" width="32" height="32"><path d="M27.644 28.666c2.848 0 4.356-1.508 4.356-4.354V10.651c0-2.847-1.508-4.367-4.356-4.367h-3.286c-.992 0-1.34-.169-1.985-.832l-1.018-1.066c-.683-.715-1.379-1.053-2.681-1.053h-5.4c-1.302 0-1.998.338-2.681 1.053L9.575 5.452c-.644.663-.992.832-1.998.832H4.368c-2.848 0-4.369 1.521-4.369 4.367v13.661c0 2.847 1.521 4.354 4.369 4.354h23.275zm-11.638-4.224c-3.828 0-6.908-3.094-6.908-6.98 0-3.873 3.08-6.98 6.908-6.98s6.895 3.107 6.895 6.98c0 3.886-3.067 6.98-6.895 6.98zm9.473-9.983c-.967 0-1.766-.78-1.766-1.768 0-.949.812-1.768 1.766-1.768.941 0 1.753.819 1.753 1.768a1.78 1.78 0 01-1.753 1.768zm-9.473 7.396c2.41 0 4.343-1.95 4.343-4.393 0-2.431-1.933-4.393-4.343-4.393s-4.343 1.963-4.343 4.393c0 2.444 1.946 4.393 4.343 4.393z"/></svg>