<svg xmlns="http://www.w3.org/2000/svg" width="32" height="32"><path d="M29.763 0H2.333A2.318 2.318 0 000 2.323v27.355c0 1.239 1.037 2.323 2.333 2.323h27.326a2.318 2.318 0 002.333-2.323V2.271C32.096 1.032 31.059 0 29.762 0zM9.489 27.2H4.77V11.974h4.719V27.2zM7.104 9.858c-1.556 0-2.748-1.239-2.748-2.735S5.6 4.387 7.104 4.387c1.504 0 2.748 1.239 2.748 2.736S8.711 9.858 7.104 9.858zM27.378 27.2h-4.719v-7.381c0-1.755-.052-4.077-2.489-4.077-2.489 0-2.852 1.961-2.852 3.923V27.2h-4.719V11.974h4.615v2.116h.052c.674-1.239 2.178-2.477 4.511-2.477 4.822 0 5.704 3.097 5.704 7.329V27.2h-.104z"/></svg>