<svg xmlns="http://www.w3.org/2000/svg" width="32" height="32"><path d="M18.526.001c2.197.004 2.824.023 4.21.102 1.757.052 2.894.31 3.927.723s1.912.929 2.79 1.806c.878.877 1.447 1.755 1.809 2.839s.672 2.271.723 3.923c.052 1.755-.052 2.323-.052 6.71v2.502l-.001.536a97.44 97.44 0 01-.05 3.516c-.052 1.755-.362 2.89-.723 3.923s-.93 1.961-1.809 2.839c-.878.877-1.757 1.445-2.842 1.806s-2.17.671-3.927.723c-.469.014-.845.024-1.229.031l-.291.005c-.492.008-1.033.011-1.818.013l-.501.001h-4.981c-2.424-.003-3.003-.02-4.408-.102-1.757-.052-2.894-.361-3.927-.723s-1.964-.929-2.842-1.806-1.447-1.755-1.809-2.839c-.362-1.084-.672-2.168-.723-3.923-.01-.351-.019-.65-.025-.94l-.009-.432C.01 20.751.005 20.237.003 19.5l-.001-.471v-3.856c.006-3.628.054-4.142.103-5.78.052-1.755.31-2.89.723-3.923.362-1.084.93-1.961 1.809-2.839S4.394 1.134 5.479.773C6.564.412 7.649.102 9.406.05c1.23-.036 1.827-.047 3.581-.05h5.541zm.264 2.942h-5.439a150.67 150.67 0 00-2.426.017l-.28.006c-.324.007-.648.016-1.034.028-1.602.052-2.429.361-2.997.568-.723.31-1.24.619-1.809 1.187-.517.516-.878 1.084-1.188 1.806C3.41 7.174 3.1 8 3.049 9.549c-.012.385-.021.709-.028 1.033l-.006.279c-.01.565-.014 1.183-.016 2.169l-.001.813v8.558c.052 1.6.362 2.426.568 2.994.362.723.672 1.239 1.24 1.806.517.568 1.085.929 1.809 1.239.62.207 1.447.516 2.997.568a95.28 95.28 0 003.432.05l.826.001h8.608c1.602-.052 2.429-.361 2.997-.568.723-.361 1.24-.671 1.809-1.239.568-.516.93-1.084 1.24-1.806.207-.619.517-1.445.568-2.994.01-.33.021-.615.031-.894l.01-.278c.035-1.023.063-2.138.063-5.28v-2.445l-.001-.525a96.668 96.668 0 00-.05-3.481c-.052-1.6-.362-2.426-.568-2.994-.362-.723-.672-1.239-1.24-1.806-.517-.516-1.085-.877-1.809-1.187-.62-.206-1.447-.516-2.997-.568-.386-.012-.71-.021-1.034-.028l-.28-.006c-.612-.011-1.288-.015-2.426-.017zm-2.771 4.851c4.599 0 8.268 3.613 8.268 8.206s-3.772 8.206-8.268 8.206c-4.495 0-8.216-3.613-8.216-8.206a8.199 8.199 0 018.216-8.206zm0 2.838c-2.945 0-5.374 2.426-5.374 5.368s2.377 5.368 5.374 5.368 5.374-2.374 5.374-5.368-2.377-5.368-5.374-5.368zm8.629-5.109a1.91 1.91 0 11-1.912 1.91 1.91 1.91 0 011.912-1.91z"/></svg>