<svg xmlns="http://www.w3.org/2000/svg" width="32" height="32"><path d="M9.961 29.553c12.181 0 18.787-10.065 18.787-18.787 0-.206 0-.568-.052-.877a13.8 13.8 0 003.303-3.406c-1.239.568-2.477.877-3.768 1.032a6.386 6.386 0 002.89-3.664c-1.29.723-2.632 1.29-4.232 1.6-1.239-1.29-2.89-2.116-4.8-2.116-3.664 0-6.658 2.994-6.658 6.658 0 .516.052 1.032.155 1.548C10.27 11.18 5.418 8.547 2.115 4.573c-.568 1.032-.877 2.116-.877 3.303 0 2.323 1.187 4.284 2.994 5.471a7.181 7.181 0 01-2.994-.826v.052c0 3.148 2.271 5.884 5.265 6.503a6.556 6.556 0 01-1.652.206c-.413 0-.877-.052-1.239-.155.877 2.632 3.303 4.542 6.194 4.593-2.271 1.755-5.11 2.839-8.155 2.839-.619.103-1.135 0-1.652-.052 2.787 1.961 6.245 3.045 9.961 3.045z"/></svg>